<?xml version="1.0" encoding="UTF-8"?>
<svg width="92px" height="31px" viewBox="0 0 92 31" version="1.1" xmlns="http://www.w3.org/2000/svg" xmlns:xlink="http://www.w3.org/1999/xlink">
    <title>Components/Logo/Header-120W</title>
    <g id="Page-1" stroke="none" stroke-width="1" fill="none" fill-rule="evenodd">
        <g id="Home-Interactions" transform="translate(-896.000000, -237.000000)" fill="#1B1B1B">
            <g id="Group" transform="translate(880.000000, 224.000000)">
                <g id="Group" transform="translate(16.000000, 13.234360)">
                    <path d="M30.7277041,15.2181818 L28.2719469,11.4337662 C28.1900883,11.2727273 28.0262893,11.0311688 27.9444307,10.8701299 L25.8979664,7.81038961 C25.6524725,7.48831169 25.3249564,7.16623377 24.9156635,6.92467532 L19.2674219,3.7038961 L17.9576847,1.04675325 C17.5483918,0.402597403 16.8116646,0 16.156796,0 C15.9113022,0 15.7475031,0 15.583786,0.0805194805 L6.41566659,3.14025974 C6.00637372,3.22077922 5.59708085,3.54285714 5.26964655,3.86493506 L2.81388932,6.44155844 C2.56831359,6.68311688 2.32273787,7.00519481 2.24087929,7.24675325 L0.276272689,10.8701299 C0.0306969654,11.3532468 -0.051161609,11.9168831 0.0306969654,12.4 L1.2585764,19.0025974 L0.849283529,19.4051948 C0.276272689,19.9688312 0.11255554,20.774026 0.358131263,21.4987013 L0.521849231,22.0623377 C0.767424954,22.787013 1.50415212,23.2701299 2.24087929,23.2701299 C2.56831359,23.2701299 2.81388932,23.1896104 3.05946504,23.1090909 L3.63247506,22.787013 C3.79619221,22.625974 4.12362651,22.5454545 4.28734366,22.3844156 L5.1059294,21.9818182 C5.760798,21.5792208 6.17009087,20.8545455 6.17009087,20.1298701 L5.92451514,14.4935065 L6.82495946,14.8155844 L8.70766575,23.2701299 C8.8713829,24.1558442 9.68996864,24.8 10.590413,24.8 L13.2098873,24.8 C14.0284731,24.8 14.8470588,24.2363636 15.0926346,23.4311688 L16.2387365,20.0493506 L18.0395432,20.2103896 L19.8404319,23.6727273 C20.1678662,24.3168831 20.9045933,24.8 21.7231791,24.8 L24.5882292,24.8 C25.4886735,24.8 26.3072593,24.0753247 26.4710583,23.1896104 L27.4533612,17.1506494 L28.3537236,17.5532468 C28.6812398,17.7948052 29.0085922,17.7142857 29.3361084,17.7142857 C29.9091184,17.7142857 30.4821284,17.3922078 30.7277041,16.9090909 C30.9732799,16.6675325 31.2187737,15.9428571 30.7277041,15.2181818 Z M8.38023145,13.4467532 L8.2165143,13.3662338 C8.13465573,13.3662338 8.05279715,13.2857143 7.97093858,13.2857143 L6.25194944,12.6415584 C6.08823229,12.561039 5.760798,12.4805195 5.59708085,12.4805195 L4.61477795,12.238961 L4.53291938,12.238961 C4.36920223,12.238961 4.28734366,12.3194805 4.12362651,12.4 C4.04176793,12.4805195 3.95990936,12.6415584 3.95990936,12.8025974 L4.20548508,20.2103896 L4.12362651,20.3714286 L3.30504076,20.774026 C3.22318219,20.9350649 2.97760646,21.0155844 2.81388932,21.0961039 L2.24087929,21.3376623 L2.07716215,20.8545455 L2.07716215,20.6935065 L2.89574789,19.8883117 C3.05946504,19.7272727 3.22318219,19.4051948 3.14132361,19.0831169 L1.83158642,12.0779221 C1.83158642,11.9974026 1.83158642,11.7558442 1.913445,11.6753247 L3.87805078,8.05194805 C3.95990936,7.89090909 4.12362651,7.72987013 4.20548508,7.64935065 L6.66124231,5.07272727 C6.74310089,4.99220779 6.90681804,4.91168831 7.07053519,4.83116883 L16.0749374,1.85194805 L17.5483918,4.67012987 C17.6302504,4.75064935 17.6302504,4.83116883 17.6302504,4.91168831 L17.3028161,9.17922078 L12.0638673,13.9298701 L8.38023145,13.4467532 Z M26.9621278,14.574026 C26.7984107,14.4935065 26.6347754,14.412987 26.4710583,14.412987 C26.0617654,14.412987 25.979825,14.4935065 25.8979664,14.8961039 L24.5063706,22.625974 L21.8050377,22.625974 L19.7585733,18.761039 C19.5948561,18.438961 19.1855633,18.1974026 18.858129,18.1168831 L15.583786,17.7948052 L15.5019274,17.7948052 C15.0926346,17.7948052 14.6834235,18.0363636 14.5196245,18.438961 L13.1280288,22.5454545 L10.7541301,22.5454545 L9.11695862,15.4597403 L11.6545744,15.7818182 C11.8182916,15.7818182 11.9001502,15.7818182 12.0638673,15.7818182 C12.5550187,15.7818182 13.0462521,15.6207792 13.3736863,15.2987013 L18.9399876,10.225974 C19.3492804,9.82337662 19.5948561,9.25974026 19.5948561,8.77662338 L19.5948561,6.03896104 L23.6877849,8.6961039 L23.9333606,8.93766234 L26.1435421,11.9974026 C26.2254007,12.1584416 26.3891997,12.3194805 26.4710583,12.4805195 C26.4710583,12.4805195 29.1723094,15.7012987 29.0085922,15.8623377 C28.9268155,16.1038961 26.9621278,14.574026 26.9621278,14.574026 Z" id="Shape"></path>
                    <path d="M37.9540175,12.553556 L39.8438668,20.9297333 L41.7579283,13.0649691 C41.9034182,12.4969263 42.395804,12.2047213 43.2359542,12.1883544 C44.0756701,12.1723148 44.624949,12.4481527 44.8834651,13.0163047 L47.0157615,20.7592986 L49.0266715,12.6265526 C49.1880133,12.0749859 49.6605299,11.8759635 50.4441128,12.0300312 C51.2274784,12.1844263 51.5625396,12.5778882 51.4497306,13.2110716 L48.6148481,23.608242 C48.5179995,24.4037858 48.0249623,24.8052129 47.1368221,24.8135055 C46.2483563,24.8214708 45.6990774,24.4767824 45.4893113,23.7786767 L43.3571234,15.4024994 L41.4187413,23.6569065 C41.2407875,24.4200436 40.6877085,24.8052129 39.7590701,24.8135055 C38.8299973,24.8214708 38.2848442,24.4280089 38.123611,23.6324652 L35.6522361,13.259736 C35.4258581,12.6265526 35.6924087,12.2088676 36.4517794,12.005699 C37.2107158,11.8028577 37.711679,11.9855131 37.9540175,12.553556 Z M62.6575015,11.6755584 C63.6054965,11.6841416 64.0470736,11.9665098 63.9819031,12.5228829 L63.9819031,23.8926579 C63.9654181,24.49844 63.5442824,24.8050174 62.7188255,24.8134906 C61.8930389,24.8215237 61.4802556,24.506473 61.4802556,23.8680085 L61.4802556,22.6401582 C60.2376193,24.2117802 58.8109011,24.9197914 57.2007601,24.7644118 C55.5901796,24.6090323 54.3228159,23.8803332 53.3994384,22.5787547 C52.4754015,21.2772861 52.0953682,19.7508915 52.2590089,17.9989104 C52.4221001,16.2473695 52.9659939,14.8679912 53.8899209,13.8612155 C54.8132984,12.8543299 55.7330493,12.2365532 56.6489536,12.0071153 C57.5645282,11.7781176 58.4473528,11.7412535 59.2975371,11.896633 C60.1475016,12.0523427 60.834265,12.5067067 61.3577174,13.2595051 L61.3577174,12.5473123 C61.2757322,11.9580365 61.7090668,11.6675253 62.6575015,11.6755584 Z M90.7779927,12.0560171 C91.648297,12.3893954 91.8679347,13.043586 91.437017,14.0189168 L84.3000753,29.4297122 C83.9352384,30.2910759 83.3177792,30.5269867 82.4473633,30.1367888 C81.577059,29.7467002 81.4068983,29.1043105 81.9376614,28.2103847 L84.1011645,23.455565 L79.2022758,14.1408605 C78.6551318,13.1655297 78.8124775,12.4869722 79.6747586,12.1047509 C80.5365939,11.7230759 81.1667567,12.003459 81.5645783,12.9460092 L85.5433514,20.7488744 L88.9253921,12.9704854 C89.2898947,12.0278258 89.9076883,11.7230759 90.7779927,12.0560171 Z M67.6098393,6.42052584 C68.6026086,6.43701625 69.0341719,6.86762346 68.9051803,7.71223824 L68.8809876,19.9219127 C68.9615938,21.1892717 69.4778859,21.9530726 70.4302978,22.2127692 C71.2535011,22.7165458 71.4551794,23.3380486 71.0356582,24.0770593 C70.615703,24.8162883 69.9136802,24.9991025 68.929373,24.6255019 C67.1053724,23.8297031 66.2094825,22.5136373 66.2421372,20.6774138 L66.2663299,7.71223824 C66.1694506,6.83486105 66.6173955,6.40458147 67.6098393,6.42052584 Z M74.2441321,6.42052584 C75.236679,6.43701625 75.6683484,6.86762346 75.5393575,7.71223824 L75.5151649,19.9219127 C75.5957707,21.1892717 76.11206,21.9530726 77.0645751,22.2127692 C77.8876654,22.7165458 78.0892341,23.3380486 77.6697152,24.0770593 C77.2499793,24.8162883 76.5477434,24.9991025 75.5635501,24.6255019 C73.739451,23.8297031 72.8436744,22.5136373 72.8762205,20.6774138 L72.9005216,7.71223824 C72.8036428,6.83486105 73.2514768,6.40458147 74.2441321,6.42052584 Z M57.2704563,14.8564293 C58.2069435,14.5967618 59.020296,14.6212217 59.7102927,14.9295904 C60.4002895,15.238396 60.9917784,15.7500872 61.4847594,16.4647733 L61.4847594,16.4647733 L61.4847594,19.8762664 C60.8440166,21.549691 59.7307232,22.4026189 58.1454313,22.4349408 C56.5596978,22.4675904 55.5330957,21.8866691 55.0648521,20.6925045 C54.5966084,19.4985584 54.6128423,18.2923823 55.114106,17.0739763 C55.6151488,15.8555703 56.3340794,15.1165335 57.2704563,14.8564293 Z" id="Fill-1-Copy-11"></path>
                </g>
            </g>
        </g>
    </g>
</svg>